<svg xmlns="http://www.w3.org/2000/svg" viewBox="0 0 1200 800" role="img" aria-labelledby="title desc">
  <title id="title">Installment cashflow and collection illustration</title>
  <desc id="desc">A clean fintech cashflow visualization with secured money collection, analytics, and emerald brand accents.</desc>
  <defs>
    <linearGradient id="bg" x1="0" y1="0" x2="1" y2="1">
      <stop offset="0" stop-color="#0f172a"/>
      <stop offset="0.55" stop-color="#14532d"/>
      <stop offset="1" stop-color="#02A958"/>
    </linearGradient>
    <linearGradient id="card" x1="0" y1="0" x2="1" y2="1">
      <stop offset="0" stop-color="#ffffff" stop-opacity="0.98"/>
      <stop offset="1" stop-color="#ecfdf5" stop-opacity="0.96"/>
    </linearGradient>
    <linearGradient id="coin" x1="0" y1="0" x2="1" y2="1">
      <stop offset="0" stop-color="#bbf7d0"/>
      <stop offset="1" stop-color="#02A958"/>
    </linearGradient>
    <filter id="shadow" x="-30%" y="-30%" width="160%" height="160%">
      <feDropShadow dx="0" dy="24" stdDeviation="28" flood-color="#000" flood-opacity="0.25"/>
    </filter>
    <filter id="blur" x="-50%" y="-50%" width="200%" height="200%">
      <feGaussianBlur stdDeviation="54"/>
    </filter>
  </defs>
  <rect width="1200" height="800" fill="url(#bg)"/>
  <circle cx="240" cy="170" r="210" fill="#ffffff" opacity="0.12" filter="url(#blur)"/>
  <circle cx="1020" cy="670" r="220" fill="#bbf7d0" opacity="0.2" filter="url(#blur)"/>
  <g opacity="0.12" stroke="#fff" fill="none" stroke-width="2">
    <path d="M0 230h1200M0 420h1200M0 610h1200M220 0v800M520 0v800M820 0v800"/>
  </g>
  <g filter="url(#shadow)">
    <rect x="210" y="140" width="780" height="500" rx="48" fill="url(#card)"/>
    <rect x="260" y="198" width="250" height="390" rx="34" fill="#0f172a"/>
    <rect x="292" y="240" width="186" height="24" rx="12" fill="#ffffff" opacity="0.17"/>
    <g transform="translate(300 315)">
      <rect x="0" y="148" width="42" height="80" rx="12" fill="#22c55e" opacity="0.45"/>
      <rect x="62" y="92" width="42" height="136" rx="12" fill="#22c55e" opacity="0.62"/>
      <rect x="124" y="42" width="42" height="186" rx="12" fill="#22c55e" opacity="0.82"/>
      <rect x="186" y="0" width="42" height="228" rx="12" fill="#22c55e"/>
    </g>
    <path d="M310 408c45-30 82-84 126-76s51-50 105-86" stroke="#bbf7d0" stroke-width="12" fill="none" stroke-linecap="round"/>
    <rect x="560" y="206" width="360" height="95" rx="28" fill="#ffffff" stroke="#dcfce7"/>
    <circle cx="612" cy="254" r="26" fill="#dcfce7"/>
    <path d="M603 255l8 8l19-26" stroke="#02A958" stroke-width="7" fill="none" stroke-linecap="round" stroke-linejoin="round"/>
    <rect x="660" y="230" width="142" height="18" rx="9" fill="#0f172a" opacity="0.18"/>
    <rect x="660" y="266" width="205" height="12" rx="6" fill="#64748b" opacity="0.22"/>
    <rect x="560" y="338" width="360" height="95" rx="28" fill="#ffffff" stroke="#dcfce7"/>
    <circle cx="612" cy="386" r="26" fill="#dcfce7"/>
    <path d="M612 370v32M596 386h32" stroke="#02A958" stroke-width="8" stroke-linecap="round"/>
    <rect x="660" y="362" width="160" height="18" rx="9" fill="#0f172a" opacity="0.18"/>
    <rect x="660" y="398" width="218" height="12" rx="6" fill="#64748b" opacity="0.22"/>
    <rect x="560" y="470" width="360" height="95" rx="28" fill="#ffffff" stroke="#dcfce7"/>
    <circle cx="612" cy="518" r="26" fill="#dcfce7"/>
    <path d="M596 518c18-26 43-26 64 0" stroke="#02A958" stroke-width="8" fill="none" stroke-linecap="round"/>
    <rect x="660" y="494" width="126" height="18" rx="9" fill="#0f172a" opacity="0.18"/>
    <rect x="660" y="530" width="185" height="12" rx="6" fill="#64748b" opacity="0.22"/>
  </g>
  <g filter="url(#shadow)">
    <circle cx="905" cy="160" r="58" fill="url(#coin)"/>
    <circle cx="905" cy="160" r="34" fill="none" stroke="#fff" stroke-width="10" opacity="0.75"/>
    <circle cx="190" cy="570" r="52" fill="url(#coin)"/>
    <circle cx="190" cy="570" r="30" fill="none" stroke="#fff" stroke-width="9" opacity="0.75"/>
    <rect x="815" y="560" width="240" height="105" rx="30" fill="#0f172a" opacity="0.96"/>
    <circle cx="866" cy="612" r="26" fill="#02A958"/>
    <path d="M856 613l8 8l18-24" stroke="#fff" stroke-width="7" fill="none" stroke-linecap="round" stroke-linejoin="round"/>
    <rect x="908" y="588" width="92" height="17" rx="8" fill="#fff" opacity="0.72"/>
    <rect x="908" y="624" width="68" height="12" rx="6" fill="#fff" opacity="0.28"/>
  </g>
</svg>
