<svg xmlns="http://www.w3.org/2000/svg" viewBox="0 0 1200 800" role="img" aria-labelledby="title desc">
  <title id="title">Installment payment dashboard illustration</title>
  <desc id="desc">A clean emerald fintech dashboard illustration with payment cards, charts, and secure installment signals.</desc>
  <defs>
    <linearGradient id="bg" x1="0" y1="0" x2="1" y2="1">
      <stop offset="0" stop-color="#f8fafc"/>
      <stop offset="0.55" stop-color="#ecfdf5"/>
      <stop offset="1" stop-color="#d1fae5"/>
    </linearGradient>
    <linearGradient id="green" x1="0" y1="0" x2="1" y2="1">
      <stop offset="0" stop-color="#02A958"/>
      <stop offset="1" stop-color="#047857"/>
    </linearGradient>
    <filter id="shadow" x="-20%" y="-20%" width="140%" height="140%">
      <feDropShadow dx="0" dy="24" stdDeviation="28" flood-color="#064e3b" flood-opacity="0.18"/>
    </filter>
    <filter id="soft" x="-40%" y="-40%" width="180%" height="180%">
      <feGaussianBlur stdDeviation="45"/>
    </filter>
  </defs>
  <rect width="1200" height="800" fill="url(#bg)"/>
  <circle cx="1020" cy="120" r="180" fill="#02A958" opacity="0.12" filter="url(#soft)"/>
  <circle cx="150" cy="690" r="210" fill="#10b981" opacity="0.13" filter="url(#soft)"/>
  <g opacity="0.22" stroke="#02A958" stroke-width="2" fill="none">
    <path d="M92 158C246 42 372 58 500 180S781 333 1054 128"/>
    <path d="M112 650c180-138 350-110 512-10s312 88 480-58"/>
  </g>
  <g filter="url(#shadow)">
    <rect x="170" y="120" width="860" height="560" rx="44" fill="#ffffff"/>
    <rect x="170" y="120" width="860" height="92" rx="44" fill="#0f172a"/>
    <circle cx="226" cy="166" r="12" fill="#22c55e"/>
    <circle cx="266" cy="166" r="12" fill="#e2e8f0"/>
    <circle cx="306" cy="166" r="12" fill="#94a3b8"/>
    <rect x="730" y="148" width="230" height="36" rx="18" fill="#ffffff" opacity="0.12"/>
    <rect x="220" y="258" width="250" height="138" rx="30" fill="url(#green)"/>
    <path d="M250 352c50-42 118-42 176 0" stroke="#fff" stroke-width="16" stroke-linecap="round" opacity="0.78"/>
    <circle cx="286" cy="305" r="20" fill="#fff" opacity="0.88"/>
    <circle cx="366" cy="305" r="20" fill="#fff" opacity="0.55"/>
    <rect x="520" y="258" width="450" height="138" rx="30" fill="#f8fafc" stroke="#e2e8f0"/>
    <rect x="552" y="292" width="150" height="20" rx="10" fill="#0f172a" opacity="0.16"/>
    <rect x="552" y="336" width="360" height="18" rx="9" fill="#02A958" opacity="0.18"/>
    <rect x="552" y="336" width="265" height="18" rx="9" fill="#02A958"/>
    <rect x="552" y="374" width="300" height="14" rx="7" fill="#94a3b8" opacity="0.22"/>
    <g transform="translate(225 455)">
      <rect width="745" height="160" rx="30" fill="#f8fafc" stroke="#e2e8f0"/>
      <g transform="translate(55 44)" fill="none" stroke-width="14" stroke-linecap="round">
        <path d="M0 70L70 30L140 58L210 16L280 44L350 8L420 34L490 20L600 54" stroke="#cbd5e1"/>
        <path d="M0 70L70 30L140 58L210 16L280 44L350 8" stroke="#02A958"/>
      </g>
      <g fill="#02A958" opacity="0.95">
        <circle cx="55" cy="114" r="10"/>
        <circle cx="125" cy="74" r="10"/>
        <circle cx="195" cy="102" r="10"/>
        <circle cx="265" cy="60" r="10"/>
        <circle cx="335" cy="88" r="10"/>
        <circle cx="405" cy="52" r="10"/>
      </g>
    </g>
  </g>
  <g filter="url(#shadow)">
    <rect x="810" y="542" width="220" height="105" rx="28" fill="#0f172a"/>
    <circle cx="858" cy="594" r="25" fill="#02A958"/>
    <path d="M847 595l8 8l17-22" stroke="#fff" stroke-width="7" fill="none" stroke-linecap="round" stroke-linejoin="round"/>
    <rect x="900" y="570" width="88" height="16" rx="8" fill="#fff" opacity="0.75"/>
    <rect x="900" y="606" width="64" height="12" rx="6" fill="#fff" opacity="0.28"/>
  </g>
</svg>
