<svg xmlns="http://www.w3.org/2000/svg" viewBox="0 0 1200 800" role="img" aria-labelledby="title desc">
  <title id="title">Buyer installment checkout illustration</title>
  <desc id="desc">A premium illustration of a customer approving an installment checkout on a phone with clean emerald payment UI.</desc>
  <defs>
    <linearGradient id="bg" x1="0" y1="0" x2="1" y2="1">
      <stop offset="0" stop-color="#f1f5f9"/>
      <stop offset="0.55" stop-color="#ffffff"/>
      <stop offset="1" stop-color="#dcfce7"/>
    </linearGradient>
    <linearGradient id="phone" x1="0" y1="0" x2="1" y2="1">
      <stop offset="0" stop-color="#111827"/>
      <stop offset="1" stop-color="#334155"/>
    </linearGradient>
    <linearGradient id="green" x1="0" y1="0" x2="1" y2="1">
      <stop offset="0" stop-color="#02A958"/>
      <stop offset="1" stop-color="#10b981"/>
    </linearGradient>
    <filter id="shadow" x="-20%" y="-20%" width="140%" height="140%">
      <feDropShadow dx="0" dy="28" stdDeviation="32" flood-color="#064e3b" flood-opacity="0.18"/>
    </filter>
    <filter id="glow" x="-60%" y="-60%" width="220%" height="220%">
      <feGaussianBlur stdDeviation="48"/>
    </filter>
  </defs>
  <rect width="1200" height="800" fill="url(#bg)"/>
  <circle cx="380" cy="360" r="260" fill="#02A958" opacity="0.13" filter="url(#glow)"/>
  <circle cx="1010" cy="590" r="190" fill="#0f172a" opacity="0.06" filter="url(#glow)"/>
  <g stroke="#02A958" stroke-width="3" opacity="0.18" fill="none">
    <circle cx="160" cy="160" r="60"/>
    <circle cx="1045" cy="170" r="88"/>
    <path d="M80 620c122-60 230-60 325 0s205 62 336-8s236-66 370 12"/>
  </g>
  <g filter="url(#shadow)">
    <rect x="430" y="85" width="340" height="630" rx="60" fill="url(#phone)"/>
    <rect x="462" y="138" width="276" height="524" rx="36" fill="#f8fafc"/>
    <rect x="540" y="112" width="118" height="12" rx="6" fill="#64748b" opacity="0.55"/>
    <circle cx="600" cy="690" r="16" fill="#475569" opacity="0.7"/>
    <rect x="500" y="180" width="200" height="110" rx="28" fill="url(#green)"/>
    <path d="M528 246c40-34 92-34 142 0" stroke="#fff" stroke-width="12" stroke-linecap="round" opacity="0.75"/>
    <rect x="505" y="330" width="190" height="20" rx="10" fill="#0f172a" opacity="0.12"/>
    <rect x="505" y="372" width="145" height="14" rx="7" fill="#94a3b8" opacity="0.28"/>
    <rect x="505" y="418" width="190" height="74" rx="22" fill="#fff" stroke="#e2e8f0"/>
    <circle cx="540" cy="455" r="18" fill="#dcfce7"/>
    <path d="M531 456l7 7l15-21" stroke="#02A958" stroke-width="6" fill="none" stroke-linecap="round" stroke-linejoin="round"/>
    <rect x="575" y="440" width="86" height="12" rx="6" fill="#0f172a" opacity="0.18"/>
    <rect x="575" y="466" width="60" height="10" rx="5" fill="#94a3b8" opacity="0.25"/>
    <rect x="505" y="525" width="190" height="54" rx="18" fill="url(#green)"/>
    <circle cx="532" cy="552" r="9" fill="#fff" opacity="0.9"/>
    <rect x="555" y="544" width="92" height="16" rx="8" fill="#fff" opacity="0.82"/>
  </g>
  <g filter="url(#shadow)">
    <rect x="190" y="275" width="285" height="180" rx="34" fill="#ffffff"/>
    <circle cx="255" cy="340" r="38" fill="#dcfce7"/>
    <path d="M237 343l15 15l36-45" stroke="#02A958" stroke-width="11" fill="none" stroke-linecap="round" stroke-linejoin="round"/>
    <rect x="315" y="310" width="112" height="18" rx="9" fill="#0f172a" opacity="0.16"/>
    <rect x="315" y="350" width="90" height="14" rx="7" fill="#94a3b8" opacity="0.28"/>
    <rect x="230" y="402" width="200" height="18" rx="9" fill="#02A958" opacity="0.2"/>
    <rect x="230" y="402" width="138" height="18" rx="9" fill="#02A958"/>
  </g>
  <g filter="url(#shadow)">
    <rect x="730" y="355" width="300" height="170" rx="36" fill="#ffffff"/>
    <rect x="765" y="392" width="78" height="78" rx="24" fill="#0f172a"/>
    <path d="M786 432h36M804 414v36" stroke="#02A958" stroke-width="10" stroke-linecap="round"/>
    <rect x="875" y="395" width="95" height="18" rx="9" fill="#0f172a" opacity="0.17"/>
    <rect x="875" y="437" width="120" height="14" rx="7" fill="#94a3b8" opacity="0.28"/>
    <rect x="875" y="470" width="84" height="14" rx="7" fill="#02A958" opacity="0.85"/>
  </g>
</svg>
