<?xml version="1.0" encoding="UTF-8"?>
<!DOCTYPE svg PUBLIC "-//W3C//DTD SVG 1.1//EN" "http://www.w3.org/Graphics/SVG/1.1/DTD/svg11.dtd">
<!-- Creator: CorelDRAW -->
<svg xmlns="http://www.w3.org/2000/svg" xml:space="preserve" width="78.7402in" height="78.7402in" version="1.1" style="shape-rendering:geometricPrecision; text-rendering:geometricPrecision; image-rendering:optimizeQuality; fill-rule:evenodd; clip-rule:evenodd"
viewBox="0 0 78740.16 78740.16"
 xmlns:xlink="http://www.w3.org/1999/xlink"
 xmlns:xodm="http://www.corel.com/coreldraw/odm/2003">
 <defs>
  <style type="text/css">
   <![CDATA[
    .str1 {stroke:#848688;stroke-width:7.87;stroke-miterlimit:2.61313}
    .str0 {stroke:#00A859;stroke-width:7.87;stroke-miterlimit:2.61313}
    .fil1 {fill:#848688}
    .fil0 {fill:#00A859}
   ]]>
  </style>
 </defs>
 <g id="Layer_x0020_1">
  <metadata id="CorelCorpID_0Corel-Layer"/>
  <g id="_2255978503456">
   <path class="fil0 str0" d="M54277.8 14339.82c156.21,-5196.45 4339.92,-9380.21 9536.39,-9536.41l0 4173.5c-2892.83,151.32 -5211.5,2470.09 -5362.83,5362.92l-4173.56 0z"/>
   <path class="fil1 str1" d="M64416.4 4803.41c5296.52,159.21 9541.42,4502.41 9541.42,9837.52 0,5435.87 -4406.65,9842.52 -9842.52,9842.52 -5335.11,0 -9678.3,-4244.91 -9837.52,-9541.42l4173.5 0c156.54,2992.56 2632.48,5370.89 5664.02,5370.89 3132.55,0 5671.98,-2539.43 5671.98,-5671.98 0,-3031.54 -2378.33,-5507.48 -5370.88,-5664.02l0 -4173.5z"/>
  </g>
 </g>
</svg>
